<svg id="Layer_1" data-name="Layer 1" xmlns="http://www.w3.org/2000/svg" viewBox="0 0 1000 1000"><defs><style>.cls-1{fill:#13110f;}</style></defs><polygon class="cls-1" points="450.06 617.06 324.13 553.9 292.94 436.94 283.76 402.49 344.59 373.17 443.07 504.99 450.06 617.06"/><path class="cls-1" d="M960.71,470,696.05,735.15,665.83,627.31,622.69,473.39c0-.09-.05-.19-.08-.29L564.84,267,699.52,202Z"/><polygon class="cls-1" points="261.5 408.34 180.22 447.55 149.52 462.36 45.63 289.16 261.5 408.34"/><polygon class="cls-1" points="288.4 436.97 111.11 645.2 150.59 466.72 279.73 404.44 288.4 436.97"/><polygon class="cls-1" points="618.22 473.67 560.07 672.24 454.61 619.34 454.6 619.34 447.63 507.24 447.42 504.06 447.42 504.05 436.51 328.82 560.83 268.88 618.22 473.67"/><path class="cls-1" d="M110.78,779.77h4.58v44.78H180V779.77h4.59v94.4H180V828.73h-64.6v45.44h-4.58Z"/><path class="cls-1" d="M280,779.09h-4.31l-44.79,95.07h4.73l12.94-27.51,2-4.16,27.09-58,27.27,58,2,4.16,12.81,27.51h5Z"/><path class="cls-1" d="M371.21,779.77h4.31l39.92,57.45,39.79-57.45h4.31v94.4H455V787.73l-39.52,56.64h-.27l-39.51-56.64v86.44h-4.45Z"/><path class="cls-1" d="M555,779.09h-4.32L506,874.16h4.71l13-27.51,2-4.16,27.12-58,27.23,58,2,4.16,12.81,27.51h5Z"/><path class="cls-1" d="M636.36,827.24V827c0-26.56,19.69-48.82,46.67-48.82,17.53,0,27.1,6.48,36.27,15l-3.23,3.37c-7.83-7.55-17.4-14.16-33.18-14.16-24,0-41.81,20.1-41.81,44.51v.27c0,24.41,18.08,44.5,41.95,44.5,14.7,0,25.21-6.47,33.58-15.1l3.23,3.1c-8.9,9-20.36,16.18-37.08,16.18C656.05,875.79,636.36,854.08,636.36,827.24Z"/><path class="cls-1" d="M766.11,779.77h4.58v44.78h64.6V779.77h4.59v94.4h-4.59V828.73h-64.6v45.44h-4.58Z"/><path class="cls-1" d="M895.85,779.77h4.59v94.4h-4.59Z"/></svg>