<svg id="Layer_1" data-name="Layer 1" xmlns="http://www.w3.org/2000/svg" viewBox="0 0 1000 1000"><defs><style>.cls-1{fill:#fff;}</style></defs><polygon class="cls-1" points="459.79 605.45 333.23 541.97 301.89 424.43 292.66 389.81 353.8 360.34 452.77 492.81 459.79 605.45"/><path class="cls-1" d="M973,457.69,707,724.14,676.64,615.76l-43.35-154.7c0-.09,0-.19-.08-.29L575.15,253.59,710.5,188.31Z"/><polygon class="cls-1" points="270.3 395.68 188.61 435.09 157.75 449.98 53.34 275.91 270.3 395.68"/><polygon class="cls-1" points="297.32 424.46 119.15 633.73 158.82 454.36 288.61 391.77 297.32 424.46"/><polygon class="cls-1" points="628.79 461.34 570.35 660.91 464.37 607.75 464.36 607.75 457.35 495.08 457.14 491.89 457.14 491.87 446.18 315.77 571.12 255.53 628.79 461.34"/><path class="cls-1" d="M118.82,769h4.6v45h64.92V769H193v94.87h-4.61V818.18H123.42v45.67h-4.6Z"/><path class="cls-1" d="M288.92,768.29h-4.33l-45,95.55h4.76l13-27.65,2-4.18,27.23-58.29L314,832l2,4.18,12.88,27.65h5Z"/><path class="cls-1" d="M380.55,769h4.34L425,826.71,465,769h4.33v94.87h-4.6V777L425,833.9h-.28L385,777v86.88h-4.47Z"/><path class="cls-1" d="M565.29,768.29H561l-45,95.55h4.73l13-27.65,2-4.18L563,773.72,590.37,832l2,4.18,12.88,27.65h5Z"/><path class="cls-1" d="M647,816.68v-.27c0-26.7,19.79-49.06,46.9-49.06,17.61,0,27.24,6.51,36.45,15l-3.25,3.39c-7.86-7.59-17.48-14.23-33.34-14.23-24.13,0-42,20.2-42,44.73v.27c0,24.53,18.17,44.72,42.16,44.72,14.77,0,25.34-6.5,33.74-15.17l3.26,3.11c-8.95,9.09-20.47,16.27-37.28,16.27C666.82,865.48,647,843.66,647,816.68Z"/><path class="cls-1" d="M777.42,769H782v45H847V769h4.61v94.87H847V818.18H782v45.67h-4.61Z"/><path class="cls-1" d="M907.82,769h4.6v94.87h-4.6Z"/></svg>