<svg id="Layer_1" data-name="Layer 1" xmlns="http://www.w3.org/2000/svg" viewBox="0 0 1000 1000"><defs><style>.cls-1{fill:#13110f;}</style></defs><path class="cls-1" d="M444.24,468.47l7.08,113.93h0Z"/><path class="cls-1" d="M970.36,429.13,702.94,154.72l-.67-.69a2.22,2.22,0,0,0-2.56-.44l-140,67.5L429.65,283.82a2.27,2.27,0,0,0-1.27,2.14L439.1,458.05,343.28,329.8,342,328.09a2.24,2.24,0,0,0-2.75-.67l-65.14,31.4L260,365.61,30.63,239a2.23,2.23,0,0,0-3,3.1L138.07,426.17,96,616.48A2.26,2.26,0,0,0,97.15,619a2.23,2.23,0,0,0,1,.24,2.2,2.2,0,0,0,1.7-.79l184-216.08,30.81,115.57a2.23,2.23,0,0,0,1.19,1.55l132.35,66.37,110.7,55.54a2.23,2.23,0,0,0,1,.24,2.28,2.28,0,0,0,.89-.18A2.25,2.25,0,0,0,562,640l57.85-197.5L693.42,705a2.18,2.18,0,0,0,1.58,1.55,1.81,1.81,0,0,0,.56.08,2.22,2.22,0,0,0,1.58-.66L970.35,432.27A2.23,2.23,0,0,0,970.36,429.13ZM35.74,246.87,255.1,368l-82.6,39.85-31.2,15.05Zm66.53,361.81,40.12-181.37L273.62,364l8.81,33.06ZM318.74,515.9,287.05,397.05l-9.34-35,61.82-29.8,100.08,134,7.1,113.89ZM558.5,636.17,451.34,582.4h0l-7.08-113.93-.21-3.23v0l-11.09-178,126.33-60.91,58.32,208.1ZM696.68,700.1,666,590.5,622.13,434.09c0-.09,0-.2-.07-.3L563.35,224.31l136.86-66L965.63,430.68Z"/><path class="cls-1" d="M93.81,766.72h4.74V813h66.73V766.72H170v97.53h-4.74v-47H98.55v47H93.81Z"/><path class="cls-1" d="M268.67,766h-4.46L218,864.24h4.89l13.36-28.42,2.1-4.31,28-59.91,28.16,59.91,2.08,4.31,13.23,28.42h5.15Z"/><path class="cls-1" d="M362.85,766.72h4.46l41.24,59.35,41.1-59.35h4.46v97.53h-4.74V774.94l-40.82,58.52h-.28l-40.82-58.52v89.31h-4.6Z"/><path class="cls-1" d="M552.75,766h-4.46l-46.24,98.22h4.87l13.39-28.42,2.07-4.31,28-59.91,28.14,59.91,2.1,4.31,13.24,28.42H599Z"/><path class="cls-1" d="M636.77,815.76v-.28c0-27.44,20.34-50.43,48.21-50.43,18.11,0,28,6.69,37.47,15.46L719.11,784c-8.08-7.8-18-14.63-34.27-14.63-24.8,0-43.19,20.76-43.19,46v.27c0,25.22,18.67,46,43.33,46,15.18,0,26-6.69,34.69-15.6l3.34,3.2c-9.19,9.33-21,16.72-38.31,16.72C657.11,865.92,636.77,843.49,636.77,815.76Z"/><path class="cls-1" d="M770.81,766.72h4.73V813h66.74V766.72H847v97.53h-4.73v-47H775.54v47h-4.73Z"/><path class="cls-1" d="M904.84,766.72h4.74v97.53h-4.74Z"/></svg>