<svg id="Layer_1" data-name="Layer 1" xmlns="http://www.w3.org/2000/svg" viewBox="0 0 1000 1000"><defs><style>.cls-1{fill:#fff;}</style></defs><path class="cls-1" d="M447.49,490.16l6.8,109.25h0Z"/><path class="cls-1" d="M952,452.44,695.57,189.3l-.64-.66a2.15,2.15,0,0,0-2.46-.43L558.24,253,433.5,313.1a2.17,2.17,0,0,0-1.21,2l10.28,165-91.88-123-1.23-1.64a2.15,2.15,0,0,0-2.64-.65L284.36,385l-13.49,6.51-220-121.46A2.14,2.14,0,0,0,48,273L153.91,449.6,113.53,632.09a2.13,2.13,0,0,0,2.1,2.59,2.08,2.08,0,0,0,1.62-.75l176.43-207.2,29.54,110.82a2.15,2.15,0,0,0,1.15,1.49l126.91,63.64,106.15,53.26a2,2,0,0,0,1,.23,2.3,2.3,0,0,0,.85-.17,2.15,2.15,0,0,0,1.2-1.38l55.47-189.38L686.44,717a2.08,2.08,0,0,0,1.51,1.48,1.67,1.67,0,0,0,.54.07,2.08,2.08,0,0,0,1.51-.62L952,455.45A2.14,2.14,0,0,0,952,452.44ZM55.78,277.67,266.13,393.8,186.92,432,157,446.44Zm63.8,346.94,38.47-173.92L283.89,390l8.45,31.7Zm207.57-89-30.39-114-8.95-33.58,59.28-28.57,96,128.45,6.81,109.21ZM557.06,651,454.3,599.41h0l-6.8-109.25-.2-3.1v0L436.66,316.32,557.8,257.91l55.93,199.55Zm132.5,61.31-29.44-105.1-42-150c0-.09,0-.19-.07-.29L561.71,256,693,192.74,947.46,453.92Z"/><path class="cls-1" d="M111.47,776.16H116v44.36h64V776.16h4.54v93.52H180v-45H116v45h-4.54Z"/><path class="cls-1" d="M279.14,775.49h-4.27L230.5,869.67h4.69L248,842.41l2-4.12,26.84-57.45,27,57.45,2,4.12,12.7,27.26h4.93Z"/><path class="cls-1" d="M369.45,776.16h4.28l39.54,56.91,39.41-56.91H457v93.52h-4.54V784l-39.15,56.11H413L373.86,784v85.64h-4.41Z"/><path class="cls-1" d="M551.54,775.49h-4.27l-44.34,94.18h4.67l12.84-27.26,2-4.12,26.86-57.45,27,57.45,2,4.12L591,869.67h4.93Z"/><path class="cls-1" d="M632.12,823.19v-.27c0-26.32,19.51-48.36,46.22-48.36,17.37,0,26.86,6.41,35.94,14.83l-3.2,3.34c-7.75-7.48-17.24-14-32.87-14-23.78,0-41.41,19.91-41.41,44.09v.26c0,24.18,17.9,44.09,41.54,44.09,14.57,0,25-6.41,33.27-15l3.21,3.07c-8.82,9-20.18,16-36.74,16C651.63,871.28,632.12,849.77,632.12,823.19Z"/><path class="cls-1" d="M760.65,776.16h4.54v44.36h64V776.16h4.54v93.52h-4.54v-45h-64v45h-4.54Z"/><path class="cls-1" d="M889.17,776.16h4.54v93.52h-4.54Z"/></svg>